<svg width="24" height="24" viewBox="0 0 24 24" fill="none"
    xmlns="http://www.w3.org/2000/svg" role="img" focusable="true" class="footer-link-icon-svg" id="footerLinkIconSvg4" aria-label="California Consumer Privacy Act (CCPA) Opt-Out Icon">
    <rect x="1" y="6.07595" width="22" height="11.1392" rx="5.56962" fill="white"></rect>
    <path fill-rule="evenodd" clip-rule="evenodd" d="M17.4304 6.07595C20.5064 6.07595 23 8.56955 23 11.6456C23 14.7216 20.5064 17.2152 17.4304 17.2152H6.56962C3.49361 17.2152 1 14.7216 1 11.6456C1 8.56955 3.49361 6.07595 6.56962 6.07595H17.4304ZM13.2679 6.91818H6.56962C3.95876 6.91818 1.84223 9.03471 1.84223 11.6456C1.84223 14.2564 3.95876 16.373 6.56962 16.373H10.7321L13.2679 6.91818ZM10.3553 9.41582C10.5301 9.55752 10.557 9.81415 10.4153 9.98902L7.41378 13.6942C7.16006 14.0074 6.69106 14.0319 6.4061 13.7468L4.65019 11.9904C4.49109 11.8312 4.49109 11.5732 4.65019 11.414C4.80929 11.2549 5.06725 11.2549 5.22635 11.414L6.87565 13.0638L9.78224 9.47587C9.92389 9.301 10.1804 9.27411 10.3553 9.41582ZM15.1023 9.24971C14.9477 9.08617 14.6899 9.07896 14.5264 9.2336C14.3629 9.38824 14.3557 9.64617 14.5103 9.80971L16.2013 11.5987L14.4609 13.3396C14.3018 13.4988 14.3018 13.7568 14.4609 13.916C14.62 14.0751 14.878 14.0751 15.0371 13.916L16.7614 12.1911L18.4368 13.9635C18.5914 14.1271 18.8493 14.1343 19.0128 13.9796C19.1762 13.825 19.1835 13.5671 19.0289 13.4035L17.3378 11.6146L19.0782 9.8736C19.2373 9.71445 19.2373 9.45641 19.0782 9.29726C18.9191 9.13811 18.6611 9.13811 18.502 9.29726L16.7777 11.0221L15.1023 9.24971Z" fill="#454B52"></path>
</svg>